# xmcd
#
# Track frame offsets:
#	150
#	11713
#	24128
#	35592
#	47350
#	60489
#	70643
#	86035
#	98894
#	114378
#	132916
#	146799
#	159574
#	170555
#
# Disc length: 2439 seconds
#
# Revision: 0
# Processed by: cddbd v1.4PL0 Copyright (c) Steve Scherf et al.
# Submitted via: dBpowerAMP V4.0
#
DISCID=b209850e
DTITLE=Ray Sanders - Ray Sanders and Friends
DYEAR=2001
DGENRE=Country
TTITLE0=That Would Be The End of The World
TTITLE1=I'm Gonna Go Online
TTITLE2=Your Side of the Bed
TTITLE3=I Let A Good One Get Away
TTITLE4=She's Gonna Dance
TTITLE5=I'm In A Rut
TTITLE6=Tooth and Nail
TTITLE7=I Found You
TTITLE8=What Am I Gonna Do About This Tattoo?
TTITLE9=Returned Letters
TTITLE10=Rocky Road
TTITLE11=I Cried
TTITLE12=Intensive Care
TTITLE13=I'm Not Stopping When I Start
EXTD=
EXTT0=
EXTT1=
EXTT2=
EXTT3=
EXTT4=
EXTT5=
EXTT6=
EXTT7=
EXTT8=
EXTT9=
EXTT10=
EXTT11=
EXTT12=
EXTT13=
PLAYORDER=
